{
    "accessors" : [
        {
            "bufferView" : 0, 
            "componentType" : 5123, 
            "count" : 12288, 
            "max" : [
                2303
            ], 
            "min" : [
                0
            ], 
            "type" : "SCALAR"
        }, 
        {
            "bufferView" : 1, 
            "componentType" : 5126, 
            "count" : 2304, 
            "max" : [
                0.7309024333953857, 
                1.8173519372940063, 
                0.7455716729164124
            ], 
            "min" : [
                -0.7601895332336426, 
                1.7596290111541748, 
                -0.7455711960792542
            ], 
            "type" : "VEC3"
        }, 
        {
            "bufferView" : 2, 
            "componentType" : 5126, 
            "count" : 2304, 
            "max" : [
                0.10141300410032272, 
                0.9948118329048157, 
                0.10946989059448242
            ], 
            "min" : [
                -0.11749625951051712, 
                0.9930417537689209, 
                -0.10946989059448242
            ], 
            "type" : "VEC3"
        }, 
        {
            "bufferView" : 3, 
            "componentType" : 5126, 
            "count" : 2304, 
            "max" : [
                -0.5746778845787048, 
                0.1043805405497551, 
                -0.7238614559173584, 
                1.0
            ], 
            "min" : [
                -0.686339259147644, 
                -0.11457837373018265, 
                -0.8141299486160278, 
                1.0
            ], 
            "type" : "VEC4"
        }, 
        {
            "bufferView" : 4, 
            "componentType" : 5126, 
            "count" : 2304, 
            "max" : [
                0.9808756113052368, 
                0.5207847654819489
            ], 
            "min" : [
                0.47560128569602966, 
                0.01550215482711792
            ], 
            "type" : "VEC2"
        }, 
        {
            "bufferView" : 5, 
            "componentType" : 5123, 
            "count" : 12288, 
            "max" : [
                2303
            ], 
            "min" : [
                0
            ], 
            "type" : "SCALAR"
        }, 
        {
            "bufferView" : 6, 
            "componentType" : 5126, 
            "count" : 2304, 
            "max" : [
                0.7309024333953857, 
                1.8173519372940063, 
                0.7455716729164124
            ], 
            "min" : [
                -0.7601895332336426, 
                1.7596290111541748, 
                -0.7455711960792542
            ], 
            "type" : "VEC3"
        }, 
        {
            "bufferView" : 7, 
            "componentType" : 5126, 
            "count" : 2304, 
            "max" : [
                0.10141300410032272, 
                0.9948118329048157, 
                0.10946989059448242
            ], 
            "min" : [
                -0.11749625951051712, 
                0.9930417537689209, 
                -0.10946989059448242
            ], 
            "type" : "VEC3"
        }, 
        {
            "bufferView" : 8, 
            "componentType" : 5126, 
            "count" : 2304, 
            "max" : [
                -0.5746778845787048, 
                0.1043805405497551, 
                -0.7238614559173584, 
                1.0
            ], 
            "min" : [
                -0.686339259147644, 
                -0.11457837373018265, 
                -0.8141299486160278, 
                1.0
            ], 
            "type" : "VEC4"
        }, 
        {
            "bufferView" : 9, 
            "componentType" : 5126, 
            "count" : 2304, 
            "max" : [
                0.9808756113052368, 
                0.5207847654819489
            ], 
            "min" : [
                0.47560128569602966, 
                0.01550215482711792
            ], 
            "type" : "VEC2"
        }
    ], 
    "asset" : {
        "generator" : "Khronos Blender glTF 2.0 exporter", 
        "version" : "2.0"
    }, 
    "bufferViews" : [
        {
            "buffer" : 0, 
            "byteLength" : 24576, 
            "byteOffset" : 0, 
            "target" : 34963
        }, 
        {
            "buffer" : 0, 
            "byteLength" : 27648, 
            "byteOffset" : 24576, 
            "target" : 34962
        }, 
        {
            "buffer" : 0, 
            "byteLength" : 27648, 
            "byteOffset" : 52224, 
            "target" : 34962
        }, 
        {
            "buffer" : 0, 
            "byteLength" : 36864, 
            "byteOffset" : 79872, 
            "target" : 34962
        }, 
        {
            "buffer" : 0, 
            "byteLength" : 18432, 
            "byteOffset" : 116736, 
            "target" : 34962
        }, 
        {
            "buffer" : 0, 
            "byteLength" : 24576, 
            "byteOffset" : 135168, 
            "target" : 34963
        }, 
        {
            "buffer" : 0, 
            "byteLength" : 27648, 
            "byteOffset" : 159744, 
            "target" : 34962
        }, 
        {
            "buffer" : 0, 
            "byteLength" : 27648, 
            "byteOffset" : 187392, 
            "target" : 34962
        }, 
        {
            "buffer" : 0, 
            "byteLength" : 36864, 
            "byteOffset" : 215040, 
            "target" : 34962
        }, 
        {
            "buffer" : 0, 
            "byteLength" : 18432, 
            "byteOffset" : 251904, 
            "target" : 34962
        }
    ], 
    "buffers" : [
        {
            "byteLength" : 270336, 
            "uri" : "eye.bin"
        }
    ], 
    "cameras" : [
        {
            "name" : "Camera", 
            "perspective" : {
                "aspectRatio" : 1.7777777777777777, 
                "yfov" : 0.5033799372418416, 
                "zfar" : 200.0, 
                "znear" : 0.10000000149011612
            }, 
            "type" : "perspective"
        }
    ], 
    "meshes" : [
        {
            "name" : "eye_1.006", 
            "primitives" : [
                {
                    "attributes" : {
                        "NORMAL" : 2, 
                        "POSITION" : 1, 
                        "TANGENT" : 3, 
                        "TEXCOORD_0" : 4
                    }, 
                    "indices" : 0
                }
            ]
        }, 
        {
            "name" : "eye_1.005", 
            "primitives" : [
                {
                    "attributes" : {
                        "NORMAL" : 7, 
                        "POSITION" : 6, 
                        "TANGENT" : 8, 
                        "TEXCOORD_0" : 9
                    }, 
                    "indices" : 5
                }
            ]
        }
    ], 
    "nodes" : [
        {
            "camera" : 0, 
            "name" : "Correction_Camera", 
            "rotation" : [
                -0.7071067690849304, 
                -0.0, 
                0.0, 
                0.7071067690849304
            ]
        }, 
        {
            "children" : [
                0
            ], 
            "name" : "Camera", 
            "rotation" : [
                0.005725556518882513, 
                0.7594984769821167, 
                -0.6504824757575989, 
                -0.001364125870168209
            ], 
            "scale" : [
                1.0, 
                0.9999999403953552, 
                1.0
            ], 
            "translation" : [
                0.939378023147583, 
                1.270331859588623, 
                -1.734104871749878
            ]
        }, 
        {
            "children" : [
                3, 
                4
            ], 
            "name" : "Eye", 
            "scale" : [
                0.5792022943496704, 
                0.5792022943496704, 
                0.5792022943496704
            ], 
            "translation" : [
                -0.8814917206764221, 
                3.604870080947876, 
                -0.16736793518066406
            ]
        }, 
        {
            "mesh" : 1, 
            "name" : "eye1", 
            "rotation" : [
                0.7071068286895752, 
                1.410806227397643e-08, 
                3.0386789262593084e-07, 
                0.7071068286895752
            ], 
            "scale" : [
                0.41257140040397644, 
                0.4125714898109436, 
                0.4125714898109436
            ], 
            "translation" : [
                2.450897455215454, 
                -4.432479381561279, 
                2.215113878250122
            ]
        }, 
        {
            "mesh" : 0, 
            "name" : "eye2", 
            "rotation" : [
                0.7071068286895752, 
                1.4108064050333269e-08, 
                3.0386789262593084e-07, 
                0.7071068286895752
            ], 
            "scale" : [
                0.41257140040397644, 
                0.4125714898109436, 
                0.4125714898109436
            ], 
            "translation" : [
                0.9292706847190857, 
                -4.381686210632324, 
                2.2311367988586426
            ]
        }, 
        {
            "name" : "Lamp", 
            "rotation" : [
                0.16907575726509094, 
                0.7558802962303162, 
                -0.27217137813568115, 
                0.570947527885437
            ], 
            "scale" : [
                1.0, 
                1.0, 
                0.9999999403953552
            ], 
            "translation" : [
                4.076245307922363, 
                5.903861999511719, 
                -1.0054539442062378
            ]
        }
    ], 
    "scene" : 0, 
    "scenes" : [
        {
            "name" : "Scene", 
            "nodes" : [
                5, 
                1, 
                2
            ]
        }
    ]
}
