{
    "accessors" : [
        {
            "bufferView" : 0, 
            "componentType" : 5121, 
            "count" : 108, 
            "max" : [
                39
            ], 
            "min" : [
                0
            ], 
            "type" : "SCALAR"
        }, 
        {
            "bufferView" : 1, 
            "componentType" : 5126, 
            "count" : 40, 
            "max" : [
                175.7170867919922, 
                33.96641159057617, 
                30.735244750976562
            ], 
            "min" : [
                -1.1277234554290771, 
                -0.12034067511558533, 
                -0.11926862597465515
            ], 
            "type" : "VEC3"
        }, 
        {
            "bufferView" : 2, 
            "componentType" : 5126, 
            "count" : 40, 
            "max" : [
                0.37650686502456665, 
                0.8937650918960571, 
                0.7835932374000549
            ], 
            "min" : [
                -0.41776788234710693, 
                -0.999847412109375, 
                -0.9849543571472168
            ], 
            "type" : "VEC3"
        }, 
        {
            "bufferView" : 3, 
            "componentType" : 5121, 
            "count" : 72, 
            "max" : [
                27
            ], 
            "min" : [
                0
            ], 
            "type" : "SCALAR"
        }, 
        {
            "bufferView" : 4, 
            "componentType" : 5126, 
            "count" : 28, 
            "max" : [
                23.64588165283203, 
                3.3634791374206543, 
                3.885599136352539
            ], 
            "min" : [
                -0.20091181993484497, 
                -0.08648355305194855, 
                -0.030216112732887268
            ], 
            "type" : "VEC3"
        }, 
        {
            "bufferView" : 5, 
            "componentType" : 5126, 
            "count" : 28, 
            "max" : [
                0.13962218165397644, 
                0.9613330364227295, 
                0.9976195693016052
            ], 
            "min" : [
                -0.7426679134368896, 
                -0.9289224147796631, 
                -0.22608111798763275
            ], 
            "type" : "VEC3"
        }, 
        {
            "bufferView" : 6, 
            "componentType" : 5121, 
            "count" : 108, 
            "max" : [
                39
            ], 
            "min" : [
                0
            ], 
            "type" : "SCALAR"
        }, 
        {
            "bufferView" : 7, 
            "componentType" : 5126, 
            "count" : 40, 
            "max" : [
                1.0919806957244873, 
                0.09593277424573898, 
                3.572369337081909
            ], 
            "min" : [
                -110.17427062988281, 
                -57.6526985168457, 
                -0.09570735692977905
            ], 
            "type" : "VEC3"
        }, 
        {
            "bufferView" : 8, 
            "componentType" : 5126, 
            "count" : 40, 
            "max" : [
                0.6598712205886841, 
                0.8771019577980042, 
                0.9957274198532104
            ], 
            "min" : [
                -0.5027313828468323, 
                -0.9763176441192627, 
                -0.7933286428451538
            ], 
            "type" : "VEC3"
        }, 
        {
            "bufferView" : 9, 
            "componentType" : 5121, 
            "count" : 84, 
            "max" : [
                31
            ], 
            "min" : [
                0
            ], 
            "type" : "SCALAR"
        }, 
        {
            "bufferView" : 10, 
            "componentType" : 5126, 
            "count" : 32, 
            "max" : [
                50.34822082519531, 
                0.30756115913391113, 
                1.6199297904968262
            ], 
            "min" : [
                -1.055196762084961, 
                -2.616641044616699, 
                -0.06826144456863403
            ], 
            "type" : "VEC3"
        }, 
        {
            "bufferView" : 11, 
            "componentType" : 5126, 
            "count" : 32, 
            "max" : [
                0.060731835663318634, 
                0.7061372995376587, 
                0.7441938519477844
            ], 
            "min" : [
                -0.790154755115509, 
                -0.8713644742965698, 
                -0.8457899689674377
            ], 
            "type" : "VEC3"
        }, 
        {
            "bufferView" : 12, 
            "componentType" : 5121, 
            "count" : 132, 
            "max" : [
                47
            ], 
            "min" : [
                0
            ], 
            "type" : "SCALAR"
        }, 
        {
            "bufferView" : 13, 
            "componentType" : 5126, 
            "count" : 48, 
            "max" : [
                1.0395829677581787, 
                11.81210994720459, 
                1.8427062034606934
            ], 
            "min" : [
                -34.90251922607422, 
                -1.0448371171951294, 
                -1.1793544292449951
            ], 
            "type" : "VEC3"
        }, 
        {
            "bufferView" : 14, 
            "componentType" : 5126, 
            "count" : 48, 
            "max" : [
                0.4525284469127655, 
                0.886837363243103, 
                0.4674215018749237
            ], 
            "min" : [
                -0.8291574120521545, 
                -0.7668080925941467, 
                -0.9116184115409851
            ], 
            "type" : "VEC3"
        }, 
        {
            "bufferView" : 15, 
            "componentType" : 5121, 
            "count" : 132, 
            "max" : [
                47
            ], 
            "min" : [
                0
            ], 
            "type" : "SCALAR"
        }, 
        {
            "bufferView" : 16, 
            "componentType" : 5126, 
            "count" : 48, 
            "max" : [
                34.747989654541016, 
                6.160163879394531, 
                3.0030338764190674
            ], 
            "min" : [
                -1.0357524156570435, 
                -0.061710428446531296, 
                -2.158897638320923
            ], 
            "type" : "VEC3"
        }, 
        {
            "bufferView" : 17, 
            "componentType" : 5126, 
            "count" : 48, 
            "max" : [
                0.7973570823669434, 
                0.9912412166595459, 
                0.7287514805793762
            ], 
            "min" : [
                -0.5325785279273987, 
                -0.7036042213439941, 
                -0.9938657879829407
            ], 
            "type" : "VEC3"
        }
    ], 
    "asset" : {
        "generator" : "Khronos Blender glTF 2.0 exporter", 
        "version" : "2.0"
    }, 
    "bufferViews" : [
        {
            "buffer" : 0, 
            "byteLength" : 108, 
            "byteOffset" : 0, 
            "target" : 34963
        }, 
        {
            "buffer" : 0, 
            "byteLength" : 480, 
            "byteOffset" : 108, 
            "target" : 34962
        }, 
        {
            "buffer" : 0, 
            "byteLength" : 480, 
            "byteOffset" : 588, 
            "target" : 34962
        }, 
        {
            "buffer" : 0, 
            "byteLength" : 72, 
            "byteOffset" : 1068, 
            "target" : 34963
        }, 
        {
            "buffer" : 0, 
            "byteLength" : 336, 
            "byteOffset" : 1140, 
            "target" : 34962
        }, 
        {
            "buffer" : 0, 
            "byteLength" : 336, 
            "byteOffset" : 1476, 
            "target" : 34962
        }, 
        {
            "buffer" : 0, 
            "byteLength" : 108, 
            "byteOffset" : 1812, 
            "target" : 34963
        }, 
        {
            "buffer" : 0, 
            "byteLength" : 480, 
            "byteOffset" : 1920, 
            "target" : 34962
        }, 
        {
            "buffer" : 0, 
            "byteLength" : 480, 
            "byteOffset" : 2400, 
            "target" : 34962
        }, 
        {
            "buffer" : 0, 
            "byteLength" : 84, 
            "byteOffset" : 2880, 
            "target" : 34963
        }, 
        {
            "buffer" : 0, 
            "byteLength" : 384, 
            "byteOffset" : 2964, 
            "target" : 34962
        }, 
        {
            "buffer" : 0, 
            "byteLength" : 384, 
            "byteOffset" : 3348, 
            "target" : 34962
        }, 
        {
            "buffer" : 0, 
            "byteLength" : 132, 
            "byteOffset" : 3732, 
            "target" : 34963
        }, 
        {
            "buffer" : 0, 
            "byteLength" : 576, 
            "byteOffset" : 3864, 
            "target" : 34962
        }, 
        {
            "buffer" : 0, 
            "byteLength" : 576, 
            "byteOffset" : 4440, 
            "target" : 34962
        }, 
        {
            "buffer" : 0, 
            "byteLength" : 132, 
            "byteOffset" : 5016, 
            "target" : 34963
        }, 
        {
            "buffer" : 0, 
            "byteLength" : 576, 
            "byteOffset" : 5148, 
            "target" : 34962
        }, 
        {
            "buffer" : 0, 
            "byteLength" : 576, 
            "byteOffset" : 5724, 
            "target" : 34962
        }
    ], 
    "buffers" : [
        {
            "byteLength" : 6300, 
            "uri" : "lightning.bin"
        }
    ], 
    "cameras" : [
        {
            "name" : "Camera", 
            "perspective" : {
                "aspectRatio" : 1.7777777777777777, 
                "yfov" : 0.5033799372418416, 
                "zfar" : 200.0, 
                "znear" : 0.10000000149011612
            }, 
            "type" : "perspective"
        }
    ], 
    "meshes" : [
        {
            "name" : "BezierCurve", 
            "primitives" : [
                {
                    "attributes" : {
                        "NORMAL" : 2, 
                        "POSITION" : 1
                    }, 
                    "indices" : 0
                }
            ]
        }, 
        {
            "name" : "BezierCurve.001", 
            "primitives" : [
                {
                    "attributes" : {
                        "NORMAL" : 5, 
                        "POSITION" : 4
                    }, 
                    "indices" : 3
                }
            ]
        }, 
        {
            "name" : "l1", 
            "primitives" : [
                {
                    "attributes" : {
                        "NORMAL" : 8, 
                        "POSITION" : 7
                    }, 
                    "indices" : 6
                }
            ]
        }, 
        {
            "name" : "BezierCurve.002", 
            "primitives" : [
                {
                    "attributes" : {
                        "NORMAL" : 11, 
                        "POSITION" : 10
                    }, 
                    "indices" : 9
                }
            ]
        }, 
        {
            "name" : "BezierCurve.004", 
            "primitives" : [
                {
                    "attributes" : {
                        "NORMAL" : 14, 
                        "POSITION" : 13
                    }, 
                    "indices" : 12
                }
            ]
        }, 
        {
            "name" : "BezierCurve.003", 
            "primitives" : [
                {
                    "attributes" : {
                        "NORMAL" : 17, 
                        "POSITION" : 16
                    }, 
                    "indices" : 15
                }
            ]
        }
    ], 
    "nodes" : [
        {
            "camera" : 0, 
            "name" : "Correction_Camera", 
            "rotation" : [
                -0.7071067690849304, 
                -0.0, 
                0.0, 
                0.7071067690849304
            ]
        }, 
        {
            "children" : [
                0
            ], 
            "name" : "Camera", 
            "rotation" : [
                0.005725556518882513, 
                0.7594984769821167, 
                -0.6504824757575989, 
                -0.001364125870168209
            ], 
            "scale" : [
                1.0, 
                0.9999999403953552, 
                1.0
            ], 
            "translation" : [
                0.939378023147583, 
                1.270331859588623, 
                -1.734104871749878
            ]
        }, 
        {
            "name" : "Eye", 
            "scale" : [
                0.5792022943496704, 
                0.5792022943496704, 
                0.5792022943496704
            ], 
            "translation" : [
                -0.8814917206764221, 
                3.604870080947876, 
                -0.16736793518066406
            ]
        }, 
        {
            "name" : "Lamp", 
            "rotation" : [
                0.16907575726509094, 
                0.7558802962303162, 
                -0.27217137813568115, 
                0.570947527885437
            ], 
            "scale" : [
                1.0, 
                1.0, 
                0.9999999403953552
            ], 
            "translation" : [
                4.076245307922363, 
                5.903861999511719, 
                -1.0054539442062378
            ]
        }, 
        {
            "mesh" : 2, 
            "name" : "Lightning1", 
            "rotation" : [
                0.0, 
                0.0, 
                -0.1993679255247116, 
                0.9799246788024902
            ], 
            "scale" : [
                0.22008836269378662, 
                0.22008836269378662, 
                0.22008836269378662
            ], 
            "translation" : [
                -0.5398203134536743, 
                1.312300443649292, 
                2.9825778007507324
            ]
        }, 
        {
            "mesh" : 0, 
            "name" : "Lightning2", 
            "scale" : [
                0.12616324424743652, 
                0.12616324424743652, 
                0.12616324424743652
            ], 
            "translation" : [
                0.5874898433685303, 
                1.0689342021942139, 
                2.0415923595428467
            ]
        }, 
        {
            "mesh" : 1, 
            "name" : "Lightning3", 
            "rotation" : [
                0.0, 
                0.0, 
                0.1287955939769745, 
                0.9916711449623108
            ], 
            "translation" : [
                0.5797711610794067, 
                1.1700679063796997, 
                2.547619342803955
            ]
        }, 
        {
            "mesh" : 3, 
            "name" : "Lightning4", 
            "scale" : [
                0.5140001773834229, 
                0.5140001773834229, 
                0.5140001773834229
            ], 
            "translation" : [
                0.7834824323654175, 
                -0.07755542546510696, 
                4.7146735191345215
            ]
        }, 
        {
            "mesh" : 5, 
            "name" : "Lightning5", 
            "rotation" : [
                0.0, 
                0.0, 
                -0.14953532814979553, 
                0.9887564182281494
            ], 
            "scale" : [
                0.9999999403953552, 
                0.9999999403953552, 
                1.0
            ], 
            "translation" : [
                0.22821985185146332, 
                0.0543212890625, 
                3.8144259452819824
            ]
        }, 
        {
            "mesh" : 4, 
            "name" : "lightning6", 
            "scale" : [
                0.48614346981048584, 
                0.48614346981048584, 
                0.48614346981048584
            ], 
            "translation" : [
                -0.30173996090888977, 
                0.40590500831604004, 
                1.5031605958938599
            ]
        }, 
        {
            "name" : "refrence", 
            "rotation" : [
                -3.096251788292648e-08, 
                0.7058716416358948, 
                -0.7083398103713989, 
                -3.085462907392866e-08
            ], 
            "scale" : [
                6.791319370269775, 
                6.791319370269775, 
                6.791319370269775
            ], 
            "translation" : [
                4.802060127258301, 
                -0.8672378063201904, 
                4.717371463775635
            ]
        }
    ], 
    "scene" : 0, 
    "scenes" : [
        {
            "name" : "Scene", 
            "nodes" : [
                9, 
                8, 
                7, 
                6, 
                5, 
                4, 
                10, 
                3, 
                1, 
                2
            ]
        }
    ]
}
