{
    "accessors" : [
        {
            "bufferView" : 0, 
            "componentType" : 5123, 
            "count" : 4824, 
            "max" : [
                3009
            ], 
            "min" : [
                0
            ], 
            "type" : "SCALAR"
        }, 
        {
            "bufferView" : 1, 
            "componentType" : 5126, 
            "count" : 3010, 
            "max" : [
                19.048885345458984, 
                15.884530067443848, 
                14.0250883102417
            ], 
            "min" : [
                -20.98851776123047, 
                -15.884530067443848, 
                -16.07362937927246
            ], 
            "type" : "VEC3"
        }, 
        {
            "bufferView" : 2, 
            "componentType" : 5126, 
            "count" : 3010, 
            "max" : [
                0.99957275390625, 
                0.9952086210250854, 
                0.9984130263328552
            ], 
            "min" : [
                -0.99957275390625, 
                -0.9952086210250854, 
                -0.99951171875
            ], 
            "type" : "VEC3"
        }, 
        {
            "bufferView" : 3, 
            "componentType" : 5126, 
            "count" : 3010, 
            "max" : [
                0.9746090173721313, 
                0.8557699918746948, 
                0.998697817325592, 
                1.0
            ], 
            "min" : [
                -0.9998319149017334, 
                -0.8472043871879578, 
                -0.9975849390029907, 
                1.0
            ], 
            "type" : "VEC4"
        }, 
        {
            "bufferView" : 4, 
            "componentType" : 5126, 
            "count" : 3010, 
            "max" : [
                0.6957031488418579, 
                0.669188916683197
            ], 
            "min" : [
                0.20608218014240265, 
                0.3423879146575928
            ], 
            "type" : "VEC2"
        }, 
        {
            "bufferView" : 5, 
            "componentType" : 5121, 
            "count" : 420, 
            "max" : [
                98
            ], 
            "min" : [
                0
            ], 
            "type" : "SCALAR"
        }, 
        {
            "bufferView" : 6, 
            "componentType" : 5126, 
            "count" : 99, 
            "max" : [
                18.64667510986328, 
                2.0265579223632812e-06, 
                13.482667922973633
            ], 
            "min" : [
                -19.925312042236328, 
                -14.89858627319336, 
                -15.013975143432617
            ], 
            "type" : "VEC3"
        }, 
        {
            "bufferView" : 7, 
            "componentType" : 5126, 
            "count" : 99, 
            "max" : [
                0.555864155292511, 
                -0.09753715991973877, 
                0.5069735050201416
            ], 
            "min" : [
                -0.9942319989204407, 
                -0.921536922454834, 
                -0.9916074275970459
            ], 
            "type" : "VEC3"
        }, 
        {
            "bufferView" : 8, 
            "componentType" : 5126, 
            "count" : 99, 
            "max" : [
                0.5267695188522339, 
                0.2799692749977112, 
                0.9991281628608704, 
                1.0
            ], 
            "min" : [
                -0.9998760223388672, 
                -0.4623784124851227, 
                -0.39770573377609253, 
                1.0
            ], 
            "type" : "VEC4"
        }, 
        {
            "bufferView" : 9, 
            "componentType" : 5126, 
            "count" : 99, 
            "max" : [
                1.000000238418579, 
                0.8125
            ], 
            "min" : [
                0.0, 
                0.5
            ], 
            "type" : "VEC2"
        }, 
        {
            "bufferView" : 10, 
            "componentType" : 5121, 
            "count" : 420, 
            "max" : [
                98
            ], 
            "min" : [
                0
            ], 
            "type" : "SCALAR"
        }, 
        {
            "bufferView" : 11, 
            "componentType" : 5126, 
            "count" : 99, 
            "max" : [
                18.64667510986328, 
                2.0265579223632812e-06, 
                13.482667922973633
            ], 
            "min" : [
                -19.925312042236328, 
                -14.89858627319336, 
                -15.013975143432617
            ], 
            "type" : "VEC3"
        }, 
        {
            "bufferView" : 12, 
            "componentType" : 5126, 
            "count" : 99, 
            "max" : [
                0.555864155292511, 
                -0.09753715991973877, 
                0.5069735050201416
            ], 
            "min" : [
                -0.9942319989204407, 
                -0.921536922454834, 
                -0.9916074275970459
            ], 
            "type" : "VEC3"
        }, 
        {
            "bufferView" : 13, 
            "componentType" : 5126, 
            "count" : 99, 
            "max" : [
                0.5267695188522339, 
                0.2799692749977112, 
                0.9991281628608704, 
                1.0
            ], 
            "min" : [
                -0.9998760223388672, 
                -0.4623784124851227, 
                -0.39770573377609253, 
                1.0
            ], 
            "type" : "VEC4"
        }, 
        {
            "bufferView" : 14, 
            "componentType" : 5126, 
            "count" : 99, 
            "max" : [
                1.000000238418579, 
                0.8125
            ], 
            "min" : [
                0.0, 
                0.5
            ], 
            "type" : "VEC2"
        }
    ], 
    "asset" : {
        "generator" : "Khronos Blender glTF 2.0 exporter", 
        "version" : "2.0"
    }, 
    "bufferViews" : [
        {
            "buffer" : 0, 
            "byteLength" : 9648, 
            "byteOffset" : 0, 
            "target" : 34963
        }, 
        {
            "buffer" : 0, 
            "byteLength" : 36120, 
            "byteOffset" : 9648, 
            "target" : 34962
        }, 
        {
            "buffer" : 0, 
            "byteLength" : 36120, 
            "byteOffset" : 45768, 
            "target" : 34962
        }, 
        {
            "buffer" : 0, 
            "byteLength" : 48160, 
            "byteOffset" : 81888, 
            "target" : 34962
        }, 
        {
            "buffer" : 0, 
            "byteLength" : 24080, 
            "byteOffset" : 130048, 
            "target" : 34962
        }, 
        {
            "buffer" : 0, 
            "byteLength" : 420, 
            "byteOffset" : 154128, 
            "target" : 34963
        }, 
        {
            "buffer" : 0, 
            "byteLength" : 1188, 
            "byteOffset" : 154548, 
            "target" : 34962
        }, 
        {
            "buffer" : 0, 
            "byteLength" : 1188, 
            "byteOffset" : 155736, 
            "target" : 34962
        }, 
        {
            "buffer" : 0, 
            "byteLength" : 1584, 
            "byteOffset" : 156924, 
            "target" : 34962
        }, 
        {
            "buffer" : 0, 
            "byteLength" : 792, 
            "byteOffset" : 158508, 
            "target" : 34962
        }, 
        {
            "buffer" : 0, 
            "byteLength" : 420, 
            "byteOffset" : 159300, 
            "target" : 34963
        }, 
        {
            "buffer" : 0, 
            "byteLength" : 1188, 
            "byteOffset" : 159720, 
            "target" : 34962
        }, 
        {
            "buffer" : 0, 
            "byteLength" : 1188, 
            "byteOffset" : 160908, 
            "target" : 34962
        }, 
        {
            "buffer" : 0, 
            "byteLength" : 1584, 
            "byteOffset" : 162096, 
            "target" : 34962
        }, 
        {
            "buffer" : 0, 
            "byteLength" : 792, 
            "byteOffset" : 163680, 
            "target" : 34962
        }
    ], 
    "buffers" : [
        {
            "byteLength" : 164472, 
            "uri" : "mask1.bin"
        }
    ], 
    "cameras" : [
        {
            "name" : "Camera", 
            "perspective" : {
                "aspectRatio" : 1.7777777777777777, 
                "yfov" : 0.5033799372418416, 
                "zfar" : 200.0, 
                "znear" : 0.10000000149011612
            }, 
            "type" : "perspective"
        }
    ], 
    "meshes" : [
        {
            "name" : "Untitled.002", 
            "primitives" : [
                {
                    "attributes" : {
                        "NORMAL" : 2, 
                        "POSITION" : 1, 
                        "TANGENT" : 3, 
                        "TEXCOORD_0" : 4
                    }, 
                    "indices" : 0
                }
            ]
        }, 
        {
            "name" : "Untitled", 
            "primitives" : [
                {
                    "attributes" : {
                        "NORMAL" : 7, 
                        "POSITION" : 6, 
                        "TANGENT" : 8, 
                        "TEXCOORD_0" : 9
                    }, 
                    "indices" : 5
                }
            ]
        }, 
        {
            "name" : "Untitled.001", 
            "primitives" : [
                {
                    "attributes" : {
                        "NORMAL" : 12, 
                        "POSITION" : 11, 
                        "TANGENT" : 13, 
                        "TEXCOORD_0" : 14
                    }, 
                    "indices" : 10
                }
            ]
        }
    ], 
    "nodes" : [
        {
            "camera" : 0, 
            "name" : "Correction_Camera", 
            "rotation" : [
                -0.7071067690849304, 
                -0.0, 
                0.0, 
                0.7071067690849304
            ]
        }, 
        {
            "children" : [
                0
            ], 
            "name" : "Camera", 
            "rotation" : [
                0.005725556518882513, 
                0.7594984769821167, 
                -0.6504824757575989, 
                -0.001364125870168209
            ], 
            "scale" : [
                1.0, 
                0.9999999403953552, 
                1.0
            ], 
            "translation" : [
                0.939378023147583, 
                1.270331859588623, 
                -1.734104871749878
            ]
        }, 
        {
            "name" : "Lamp", 
            "rotation" : [
                0.16907575726509094, 
                0.7558802962303162, 
                -0.27217137813568115, 
                0.570947527885437
            ], 
            "scale" : [
                1.0, 
                1.0, 
                0.9999999403953552
            ], 
            "translation" : [
                4.076245307922363, 
                5.903861999511719, 
                -1.0054539442062378
            ]
        }, 
        {
            "children" : [
                4, 
                5, 
                6
            ], 
            "name" : "mask", 
            "rotation" : [
                -2.1855692367012125e-08, 
                0.0, 
                -0.0, 
                1.0
            ], 
            "scale" : [
                0.066460981965065, 
                0.066460981965065, 
                0.066460981965065
            ], 
            "translation" : [
                0.08643963932991028, 
                1.394182801246643, 
                1.3690521717071533
            ]
        }, 
        {
            "mesh" : 1, 
            "name" : "Sphere003", 
            "rotation" : [
                -0.1896117478609085, 
                -0.18961170315742493, 
                -0.6812102794647217, 
                0.6812102198600769
            ], 
            "scale" : [
                1.0387001037597656, 
                0.9046044945716858, 
                1.0387001037597656
            ], 
            "translation" : [
                -0.040569305419921875, 
                -0.11804008483886719, 
                7.205842971801758
            ]
        }, 
        {
            "mesh" : 2, 
            "name" : "Sphere004", 
            "rotation" : [
                0.6812103390693665, 
                0.6812102198600769, 
                -0.18961156904697418, 
                0.18961194157600403
            ], 
            "scale" : [
                -1.0387001037597656, 
                -0.9046044945716858, 
                -1.0387001037597656
            ], 
            "translation" : [
                -0.040569305419921875, 
                -0.11804008483886719, 
                7.205842971801758
            ]
        }, 
        {
            "mesh" : 0, 
            "name" : "Sphere008", 
            "rotation" : [
                0.6810775399208069, 
                0.6810775995254517, 
                -0.19008785486221313, 
                0.19008776545524597
            ], 
            "scale" : [
                -1.0, 
                -0.8709006309509277, 
                -1.0000001192092896
            ], 
            "translation" : [
                0.0, 
                -0.03997611999511719, 
                7.106719970703125
            ]
        }
    ], 
    "scene" : 0, 
    "scenes" : [
        {
            "name" : "Scene", 
            "nodes" : [
                3, 
                2, 
                1
            ]
        }
    ]
}
