{
    "accessors" : [
        {
            "bufferView" : 0, 
            "componentType" : 5123, 
            "count" : 1008, 
            "max" : [
                339
            ], 
            "min" : [
                0
            ], 
            "type" : "SCALAR"
        }, 
        {
            "bufferView" : 1, 
            "componentType" : 5126, 
            "count" : 340, 
            "max" : [
                1.252217411994934, 
                8.490540504455566, 
                2.6072068214416504
            ], 
            "min" : [
                -25.647876739501953, 
                -0.059276968240737915, 
                -0.2814972400665283
            ], 
            "type" : "VEC3"
        }, 
        {
            "bufferView" : 2, 
            "componentType" : 5126, 
            "count" : 340, 
            "max" : [
                0.7706839442253113, 
                0.9410687685012817, 
                -0.33719900250434875
            ], 
            "min" : [
                -0.5494857430458069, 
                -0.7217932939529419, 
                -0.9416180849075317
            ], 
            "type" : "VEC3"
        }, 
        {
            "bufferView" : 3, 
            "componentType" : 5123, 
            "count" : 1584, 
            "max" : [
                531
            ], 
            "min" : [
                0
            ], 
            "type" : "SCALAR"
        }, 
        {
            "bufferView" : 4, 
            "componentType" : 5126, 
            "count" : 532, 
            "max" : [
                1.3411118984222412, 
                0.65241539478302, 
                0.18829314410686493
            ], 
            "min" : [
                -28.69479751586914, 
                -2.383420467376709, 
                -1.2584502696990967
            ], 
            "type" : "VEC3"
        }, 
        {
            "bufferView" : 5, 
            "componentType" : 5126, 
            "count" : 532, 
            "max" : [
                0.9132664203643799, 
                0.9974364638328552, 
                0.32041382789611816
            ], 
            "min" : [
                -0.9844355583190918, 
                -0.7704702615737915, 
                -0.9973143935203552
            ], 
            "type" : "VEC3"
        }, 
        {
            "bufferView" : 6, 
            "componentType" : 5123, 
            "count" : 1872, 
            "max" : [
                627
            ], 
            "min" : [
                0
            ], 
            "type" : "SCALAR"
        }, 
        {
            "bufferView" : 7, 
            "componentType" : 5126, 
            "count" : 628, 
            "max" : [
                7.6302714347839355, 
                3.2819020748138428, 
                1.7998476028442383
            ], 
            "min" : [
                -1.1827508211135864, 
                -0.39410799741744995, 
                -0.2862039804458618
            ], 
            "type" : "VEC3"
        }, 
        {
            "bufferView" : 8, 
            "componentType" : 5126, 
            "count" : 628, 
            "max" : [
                0.8894314169883728, 
                0.938749372959137, 
                0.9426252245903015
            ], 
            "min" : [
                -0.9382305145263672, 
                -0.6911832094192505, 
                -0.7950987219810486
            ], 
            "type" : "VEC3"
        }, 
        {
            "bufferView" : 9, 
            "componentType" : 5123, 
            "count" : 1296, 
            "max" : [
                435
            ], 
            "min" : [
                0
            ], 
            "type" : "SCALAR"
        }, 
        {
            "bufferView" : 10, 
            "componentType" : 5126, 
            "count" : 436, 
            "max" : [
                15.496813774108887, 
                0.8860493302345276, 
                0.4808242619037628
            ], 
            "min" : [
                -1.1571663618087769, 
                -1.8602896928787231, 
                -0.3984171748161316
            ], 
            "type" : "VEC3"
        }, 
        {
            "bufferView" : 11, 
            "componentType" : 5126, 
            "count" : 436, 
            "max" : [
                0.9065828323364258, 
                0.9059724807739258, 
                0.8542435765266418
            ], 
            "min" : [
                -0.8555253744125366, 
                -0.7942747473716736, 
                -0.9310281872749329
            ], 
            "type" : "VEC3"
        }, 
        {
            "bufferView" : 12, 
            "componentType" : 5123, 
            "count" : 1584, 
            "max" : [
                531
            ], 
            "min" : [
                0
            ], 
            "type" : "SCALAR"
        }, 
        {
            "bufferView" : 13, 
            "componentType" : 5126, 
            "count" : 532, 
            "max" : [
                1.283650517463684, 
                0.28345102071762085, 
                0.20937798917293549
            ], 
            "min" : [
                -30.92930793762207, 
                -1.6509945392608643, 
                -0.8414278626441956
            ], 
            "type" : "VEC3"
        }, 
        {
            "bufferView" : 14, 
            "componentType" : 5126, 
            "count" : 532, 
            "max" : [
                0.9264198541641235, 
                0.9981688857078552, 
                0.26480910181999207
            ], 
            "min" : [
                -0.5975829362869263, 
                -0.7272865772247314, 
                -0.9981994032859802
            ], 
            "type" : "VEC3"
        }
    ], 
    "asset" : {
        "generator" : "Khronos Blender glTF 2.0 exporter", 
        "version" : "2.0"
    }, 
    "bufferViews" : [
        {
            "buffer" : 0, 
            "byteLength" : 2016, 
            "byteOffset" : 0, 
            "target" : 34963
        }, 
        {
            "buffer" : 0, 
            "byteLength" : 4080, 
            "byteOffset" : 2016, 
            "target" : 34962
        }, 
        {
            "buffer" : 0, 
            "byteLength" : 4080, 
            "byteOffset" : 6096, 
            "target" : 34962
        }, 
        {
            "buffer" : 0, 
            "byteLength" : 3168, 
            "byteOffset" : 10176, 
            "target" : 34963
        }, 
        {
            "buffer" : 0, 
            "byteLength" : 6384, 
            "byteOffset" : 13344, 
            "target" : 34962
        }, 
        {
            "buffer" : 0, 
            "byteLength" : 6384, 
            "byteOffset" : 19728, 
            "target" : 34962
        }, 
        {
            "buffer" : 0, 
            "byteLength" : 3744, 
            "byteOffset" : 26112, 
            "target" : 34963
        }, 
        {
            "buffer" : 0, 
            "byteLength" : 7536, 
            "byteOffset" : 29856, 
            "target" : 34962
        }, 
        {
            "buffer" : 0, 
            "byteLength" : 7536, 
            "byteOffset" : 37392, 
            "target" : 34962
        }, 
        {
            "buffer" : 0, 
            "byteLength" : 2592, 
            "byteOffset" : 44928, 
            "target" : 34963
        }, 
        {
            "buffer" : 0, 
            "byteLength" : 5232, 
            "byteOffset" : 47520, 
            "target" : 34962
        }, 
        {
            "buffer" : 0, 
            "byteLength" : 5232, 
            "byteOffset" : 52752, 
            "target" : 34962
        }, 
        {
            "buffer" : 0, 
            "byteLength" : 3168, 
            "byteOffset" : 57984, 
            "target" : 34963
        }, 
        {
            "buffer" : 0, 
            "byteLength" : 6384, 
            "byteOffset" : 61152, 
            "target" : 34962
        }, 
        {
            "buffer" : 0, 
            "byteLength" : 6384, 
            "byteOffset" : 67536, 
            "target" : 34962
        }
    ], 
    "buffers" : [
        {
            "byteLength" : 73920, 
            "uri" : "snake.bin"
        }
    ], 
    "cameras" : [
        {
            "name" : "Camera", 
            "perspective" : {
                "aspectRatio" : 1.7777777777777777, 
                "yfov" : 0.5033799372418416, 
                "zfar" : 200.0, 
                "znear" : 0.10000000149011612
            }, 
            "type" : "perspective"
        }
    ], 
    "meshes" : [
        {
            "name" : "BezierCurve.010", 
            "primitives" : [
                {
                    "attributes" : {
                        "NORMAL" : 2, 
                        "POSITION" : 1
                    }, 
                    "indices" : 0
                }
            ]
        }, 
        {
            "name" : "BezierCurve.007", 
            "primitives" : [
                {
                    "attributes" : {
                        "NORMAL" : 5, 
                        "POSITION" : 4
                    }, 
                    "indices" : 3
                }
            ]
        }, 
        {
            "name" : "BezierCurve.005", 
            "primitives" : [
                {
                    "attributes" : {
                        "NORMAL" : 8, 
                        "POSITION" : 7
                    }, 
                    "indices" : 6
                }
            ]
        }, 
        {
            "name" : "BezierCurve.009", 
            "primitives" : [
                {
                    "attributes" : {
                        "NORMAL" : 11, 
                        "POSITION" : 10
                    }, 
                    "indices" : 9
                }
            ]
        }, 
        {
            "name" : "BezierCurve.008", 
            "primitives" : [
                {
                    "attributes" : {
                        "NORMAL" : 14, 
                        "POSITION" : 13
                    }, 
                    "indices" : 12
                }
            ]
        }
    ], 
    "nodes" : [
        {
            "camera" : 0, 
            "name" : "Correction_Camera", 
            "rotation" : [
                -0.7071067690849304, 
                -0.0, 
                0.0, 
                0.7071067690849304
            ]
        }, 
        {
            "children" : [
                0
            ], 
            "name" : "Camera", 
            "rotation" : [
                0.005725556518882513, 
                0.7594984769821167, 
                -0.6504824757575989, 
                -0.001364125870168209
            ], 
            "scale" : [
                1.0, 
                0.9999999403953552, 
                1.0
            ], 
            "translation" : [
                0.939378023147583, 
                1.270331859588623, 
                -1.734104871749878
            ]
        }, 
        {
            "name" : "Eye", 
            "scale" : [
                0.5792022943496704, 
                0.5792022943496704, 
                0.5792022943496704
            ], 
            "translation" : [
                -0.8814917206764221, 
                3.604870080947876, 
                -0.16736793518066406
            ]
        }, 
        {
            "name" : "Lamp", 
            "rotation" : [
                0.16907575726509094, 
                0.7558802962303162, 
                -0.27217137813568115, 
                0.570947527885437
            ], 
            "scale" : [
                1.0, 
                1.0, 
                0.9999999403953552
            ], 
            "translation" : [
                4.076245307922363, 
                5.903861999511719, 
                -1.0054539442062378
            ]
        }, 
        {
            "name" : "refrence", 
            "rotation" : [
                -3.096251788292648e-08, 
                0.7058716416358948, 
                -0.7083398103713989, 
                -3.085462907392866e-08
            ], 
            "scale" : [
                6.791319370269775, 
                6.791319370269775, 
                6.791319370269775
            ], 
            "translation" : [
                4.802060127258301, 
                -0.8672378063201904, 
                4.717371463775635
            ]
        }, 
        {
            "mesh" : 1, 
            "name" : "Sanke3", 
            "scale" : [
                -0.3628427982330322, 
                -0.3628427982330322, 
                -0.3628427982330322
            ], 
            "translation" : [
                0.6561782360076904, 
                1.0275225639343262, 
                1.8291481733322144
            ]
        }, 
        {
            "mesh" : 2, 
            "name" : "snake1", 
            "translation" : [
                0.5378425121307373, 
                1.0723963975906372, 
                2.0346031188964844
            ]
        }, 
        {
            "mesh" : 4, 
            "name" : "Snake4", 
            "scale" : [
                0.30209648609161377, 
                0.30209648609161377, 
                0.30209648609161377
            ], 
            "translation" : [
                -0.37648463249206543, 
                1.0686010122299194, 
                1.6890687942504883
            ]
        }, 
        {
            "mesh" : 3, 
            "name" : "Snake5", 
            "rotation" : [
                0.0, 
                0.0, 
                -1.0, 
                -4.371138828673793e-08
            ], 
            "scale" : [
                0.5872222781181335, 
                0.5872222781181335, 
                0.5872222781181335
            ], 
            "translation" : [
                -0.818984866142273, 
                1.1510438919067383, 
                2.9795212745666504
            ]
        }, 
        {
            "mesh" : 0, 
            "name" : "Snake6", 
            "scale" : [
                0.3566089868545532, 
                0.3566089868545532, 
                0.3566089868545532
            ], 
            "translation" : [
                -0.3517615795135498, 
                1.1328332424163818, 
                2.001150131225586
            ]
        }
    ], 
    "scene" : 0, 
    "scenes" : [
        {
            "name" : "Scene", 
            "nodes" : [
                9, 
                8, 
                7, 
                5, 
                6, 
                4, 
                3, 
                1, 
                2
            ]
        }
    ]
}
